<?xml version="1.0" encoding="UTF-8" standalone="no"?>
<svg
   xmlns:dc="http://purl.org/dc/elements/1.1/"
   xmlns:cc="http://creativecommons.org/ns#"
   xmlns:rdf="http://www.w3.org/1999/02/22-rdf-syntax-ns#"
   xmlns:svg="http://www.w3.org/2000/svg"
   xmlns="http://www.w3.org/2000/svg"
   xmlns:sodipodi="http://sodipodi.sourceforge.net/DTD/sodipodi-0.dtd"
   xmlns:inkscape="http://www.inkscape.org/namespaces/inkscape"
   inkscape:version="1.0 (4035a4fb49, 2020-05-01)"
   sodipodi:docname="favicon2.svg"
   id="svg813"
   version="1.1"
   viewBox="0 0 97.691202 74.382912">
  <defs
     id="defs817">
    <clipPath
       id="clipPath896"
       clipPathUnits="userSpaceOnUse">
      <rect
         y="-0.58026403"
         x="-0.55224133"
         height="74.957993"
         width="98.243439"
         id="rect898"
         style="fill:#00ff00" />
    </clipPath>
    <clipPath
       id="clipPath900"
       clipPathUnits="userSpaceOnUse">
      <rect
         y="84.558739"
         x="23.478758"
         height="74.957993"
         width="98.243439"
         id="rect902"
         style="fill:#00ff00" />
    </clipPath>
  </defs>
  <sodipodi:namedview
     inkscape:current-layer="svg813"
     inkscape:window-maximized="1"
     inkscape:window-y="27"
     inkscape:window-x="0"
     inkscape:cy="49.538361"
     inkscape:cx="85.765368"
     inkscape:zoom="6.7726877"
     showgrid="false"
     id="namedview815"
     inkscape:window-height="1016"
     inkscape:window-width="1920"
     inkscape:pageshadow="2"
     inkscape:pageopacity="0"
     guidetolerance="10"
     gridtolerance="10"
     objecttolerance="10"
     borderopacity="1"
     bordercolor="#666666"
     pagecolor="#ffffff" />
  <g
     clip-path="url(#clipPath900)"
     id="g807"
     transform="translate(-24.031,-85.133821)">
    <g
       id="g805"
       stroke-width="0.26458"
       fill="#f1f2f3"
       transform="translate(-56.327,122.96)">
      <path
         id="path787"
         d="m 164.56,12.525 -0.9913,-0.90846 v -13.789 l 1.73,-1.73 h 73.753 l 1.1139,1.008 v 15.182 l -0.55691,0.50403 -0.55692,0.50402 -73.5,0.1378 z" />
      <path
         id="path789"
         d="m 83.863,12.525 -0.9913,-0.90846 v -13.789 l 0.86498,-0.86498 0.86499,-0.86498 h 73.798 l 1.73,1.73 v 13.738 l -0.86495,0.86498 -0.86496,0.86498 -73.546,0.1378 z" />
      <path
         id="path791"
         d="m 164.56,35.014 -0.9913,-0.90845 v -13.789 l 0.86498,-0.86499 0.86498,-0.86498 h 73.753 l 0.55695,0.50403 0.55694,0.50403 v 15.182 l -0.55691,0.50403 -0.55692,0.50403 -73.5,0.1378 z" />
      <path
         id="path793"
         d="m 83.863,35.014 -0.9913,-0.90845 v -13.789 l 0.86498,-0.86499 0.86499,-0.86498 h 73.798 l 0.86498,0.86498 0.86498,0.86499 v 13.738 l -1.7299,1.73 -73.546,0.1378 z" />
      <path
         id="path795"
         d="m 164.56,57.504 -0.9913,-0.90846 v -13.789 l 1.73,-1.73 h 73.753 l 0.55695,0.50403 0.55694,0.50403 v 15.182 l -0.55691,0.50403 -0.55692,0.50403 -73.5,0.1378 z" />
      <path
         id="path797"
         d="m 83.863,57.504 -0.9913,-0.90846 v -13.789 l 1.73,-1.73 h 73.798 l 1.73,1.73 v 13.738 l -0.86495,0.86499 -0.86496,0.86498 -73.546,0.1378 z" />
      <path
         id="path799"
         d="m 164.56,79.993 -0.9913,-0.90846 v -13.789 l 1.73,-1.73 h 73.753 l 1.1139,1.0081 v 15.182 l -1.1138,1.008 -73.5,0.1378 z" />
      <path
         id="path801"
         d="m 83.863,79.993 -0.9913,-0.90846 v -13.789 l 0.86498,-0.86498 0.86499,-0.86498 h 73.798 l 1.73,1.73 v 13.738 l -0.86495,0.86498 -0.86496,0.86498 -73.546,0.1378 z" />
      <path
         id="path803"
         d="m 80.358,86.849 v -1.7198 h 159.81 v 3.4396 H 80.358 Z" />
    </g>
  </g>
  <path
     transform="translate(0,0.00517906)"
     clip-path="url(#clipPath896)"
     d="m 10.762,124.331 v -1.7198 h 15.081 v 3.4396 H 10.762 Z m 30.692,0 v -1.7198 h 14.817 v 3.4396 H 41.454 Z m 60.854,0 v -1.7198 h 15.081 v 3.4396 h -15.081 z m 22.357,-10.451 -2.9014,-2.9104 5.8028,-5.8208 h 14.693 v 11.642 h -14.693 z m 6.8792,-0.52916 2.3702,-2.3812 -2.3702,-2.3812 c -1.7442,-1.7523 -2.5478,-2.3812 -3.0427,-2.3812 -0.4949,0 -1.2985,0.62891 -3.0427,2.3812 l -2.3702,2.3812 2.3702,2.3812 c 1.7442,1.7523 2.5478,2.3812 3.0427,2.3812 0.4949,0 1.2985,-0.62891 3.0427,-2.3812 z m 5.0911,0.33286 -2.0484,-2.0484 -4.0968,4.0968 h 8.1935 z m 4.5662,-2.7141 v -4.7625 h -0.60083 c -0.40463,0 -1.3748,0.77755 -2.971,2.3812 l -2.3702,2.3812 2.3702,2.3812 c 1.5963,1.6037 2.5664,2.3812 2.971,2.3812 h 0.60083 z m -4.4979,-2.7781 1.9711,-1.9844 h -8.1756 l 1.9711,1.9844 c 1.0841,1.0914 2.0366,1.9844 2.1167,1.9844 0.08,0 1.0325,-0.89297 2.1167,-1.9844 z m -86.55,7.9367 c -1.2224,-0.66429 -1.6884,-2.0517 -1.6884,-5.0263 0,-2.0304 0.10875,-2.8448 0.4675,-3.5012 1.2484,-2.2843 4.7547,-2.2154 5.913,0.11616 0.67737,1.3635 0.69763,5.6295 0.0326,6.8674 -0.97388,1.8129 -3.007,2.4773 -4.7246,1.5439 z m 2.6918,-0.66848 c 1.1659,-0.62397 1.7478,-3.257 1.3139,-5.9453 -0.42372,-2.6253 -2.1585,-3.5764 -3.7041,-2.0308 -0.6069,0.60691 -0.78215,1.0721 -0.9324,2.4752 -0.43034,4.0185 1.1631,6.6566 3.3226,5.5008 z m -3.9834,-21.953 c 0,-0.45861 0.17639,-0.52916 1.3229,-0.52916 h 1.3229 v -4.101 c 0,-2.2556 -0.07806,-4.101 -0.17346,-4.101 -0.0954,0 -0.56371,0.29766 -1.0407,0.66146 -1.0067,0.76787 -1.1671,0.80458 -1.1671,0.26716 0,-0.53064 2.3626,-2.2368 3.1089,-2.245 l 0.59531,-0.007 v 9.525 h 1.1906 c 1.0142,0 1.1906,0.0784 1.1906,0.52917 0,0.49977 -0.17639,0.52917 -3.175,0.52917 -2.99861,0 -3.175,-0.0294 -3.175,-0.52917 z m 80.435,-0.0662 c 0.003,-0.88649 0.75714,-1.8769 3.1431,-4.1258 1.9341,-1.8229 2.1492,-2.1232 2.1481,-2.9991 -7.9e-4,-0.53531 -0.18818,-1.1602 -0.41664,-1.3887 -0.9973,-0.99731 -2.9523,-0.70364 -3.5134,0.52775 -0.32131,0.7052 -1.3629,0.89693 -1.3629,0.25088 0,-0.21599 0.3345,-0.76707 0.74332,-1.2246 0.60393,-0.67592 1.0003,-0.85661 2.1136,-0.96359 1.7771,-0.17076 2.8106,0.2681 3.3605,1.4271 0.74105,1.5616 0.37358,2.3275 -2.4061,5.0144 -1.3686,1.323 -2.4884,2.5433 -2.4884,2.712 0,0.21199 0.81654,0.30661 2.6458,0.30661 2.4694,0 2.6458,0.0353 2.6458,0.52917 0,0.50094 -0.17639,0.52917 -3.3073,0.52917 -3.2539,0 -3.3073,-0.01 -3.3055,-0.59532 z m -76.202,-23.085 v -1.1906 h -2.5135 c -2.3323,0 -2.5135,-0.0379 -2.5135,-0.52611 0,-0.28936 1.0967,-2.1348 2.4372,-4.101 1.9353,-2.8388 2.5619,-3.5749 3.0427,-3.5749 0.60105,0 0.6055,0.0263 0.6055,3.5719 v 3.5719 h 0.81315 c 0.63149,0 0.79354,0.10344 0.72534,0.46302 -0.05296,0.27927 -0.37567,0.49625 -0.81315,0.54674 -0.66908,0.0772 -0.72534,0.17472 -0.72534,1.2568 0,0.99667 -0.07957,1.1731 -0.52917,1.1731 -0.45077,0 -0.52917,-0.17639 -0.52917,-1.1906 z m 0,-5.0271 c 0,-1.528 -0.05687,-2.7781 -0.12637,-2.7781 -0.06951,0 -0.96514,1.2502 -1.9903,2.7781 l -1.8639,2.7781 h 3.9806 z m 77.626,5.9584 c -0.57279,-0.23144 -1.6902,-1.483 -1.6902,-1.893 0,-0.51177 1.0677,-0.17883 1.8114,0.56485 1.0608,1.0608 2.1885,1.0679 3.2361,0.0203 0.60187,-0.60188 0.77339,-1.0126 0.77339,-1.8521 0,-1.9148 -1.5302,-2.7985 -3.526,-2.0363 -1.8198,0.695 -2.1286,0.60505 -1.9354,-0.56375 0.0902,-0.5457 0.16531,-1.7959 0.16691,-2.7781 l 0.003,-1.7859 h 2.9104 c 2.734,0 2.9104,0.0321 2.9104,0.52916 0,0.48997 -0.17639,0.52917 -2.3812,0.52917 h -2.3812 v 1.7481 c 0,1.566 0.0482,1.7269 0.46302,1.5447 1.8273,-0.80279 3.9528,-0.19204 4.6824,1.3454 1.1414,2.4053 -0.54964,4.9054 -3.2934,4.869 -0.65484,-0.009 -1.4421,-0.11738 -1.7494,-0.24155 z m -80.185,-23.355 c 0.28001,-1.9883 0.92566,-3.7175 2.2475,-6.0193 l 1.2915,-2.249 -2.7387,-0.0751 c -2.5212,-0.0691 -2.7387,-0.11642 -2.7387,-0.59531 0,-0.48949 0.19536,-0.52021 3.3073,-0.52021 3.961,0 3.9506,-0.0153 2.1098,3.1199 -1.3359,2.2752 -2.2421,4.8753 -2.2421,6.433 0,0.93694 -0.0633,1.0305 -0.69742,1.0305 -0.66895,0 -0.69096,-0.0459 -0.53907,-1.1245 z m 80.02,0.71031 c -0.79451,-0.4311 -1.5247,-1.6266 -1.5247,-2.4962 0,-0.91542 0.7593,-2.0979 1.46,-2.2738 0.69079,-0.17338 0.90965,-0.63661 0.30078,-0.63661 -0.99796,0 -1.7425,-1.9416 -1.2243,-3.1926 0.42983,-1.0377 1.4923,-1.5699 3.1343,-1.5699 2.3429,0 3.758,1.874 2.8057,3.7156 -0.23998,0.46407 -0.66425,0.90337 -0.94282,0.97622 -0.70931,0.18548 -0.63049,0.51141 0.1724,0.71292 0.45328,0.11377 0.81359,0.49276 1.0842,1.1404 0.55873,1.3372 0.12038,2.8071 -1.0499,3.5207 -1.0213,0.62271 -3.1617,0.67517 -4.2156,0.10333 z m 3.6838,-0.95486 c 0.65583,-0.61613 0.82402,-1.9744 0.35337,-2.8539 -0.63491,-1.1863 -3.3426,-1.1908 -3.9764,-0.007 -0.45007,0.84096 -0.30309,2.1679 0.31273,2.8234 0.77537,0.82534 2.4512,0.84411 3.3103,0.0371 z m -0.13607,-5.1543 c 0.71374,-0.64592 0.65247,-2.3244 -0.10419,-2.8544 -0.77042,-0.53963 -2.2869,-0.52601 -2.8969,0.026 -0.61171,0.55359 -0.63773,2.1285 -0.046,2.7824 0.56375,0.62293 2.3792,0.65033 3.047,0.046 z m 1.2776,-16.363 v -0.66145 h 17.462 v 1.3229 h -17.462 z m -49.212,-3.4378 c -0.21828,-0.0543 -0.84336,-0.17165 -1.3891,-0.26069 l -0.99219,-0.1619 v -1.8401 c 0,-1.625 0.0582,-1.8401 0.49776,-1.8401 0.36742,0 0.57448,0.3047 0.79078,1.1637 0.34468,1.3688 1.0818,1.7467 3.4073,1.7467 2.5694,0 4.0492,-1.1576 5.138,-4.0193 0.48965,-1.2869 1.0095,-5.2412 0.68902,-5.2412 -0.0753,0 -0.71753,0.26278 -1.4272,0.58396 -0.99886,0.45202 -1.8031,0.58652 -3.5595,0.59531 -2.0762,0.01039 -2.3798,-0.05704 -3.5719,-0.79323 -1.81,-1.1178 -2.5522,-2.5352 -2.7044,-5.1644 -0.27655,-4.7772 2.1824,-7.4812 6.8256,-7.5058 2.4007,-0.01271 3.615,0.37773 4.8227,1.5507 1.8709,1.817 2.662,4.6439 2.6705,9.5428 0.0103,5.9511 -1.6277,9.5123 -5.0883,11.062 -1.1357,0.50863 -4.9448,0.87101 -6.1091,0.58118 z m 7.5212,-11.264 c 0.76194,-0.37343 0.77345,-0.41121 0.71992,-2.3639 -0.10313,-3.7619 -0.89563,-6.264 -2.3467,-7.4092 C 91.4468,1.2082 91.07828,1.13298 89.76905,1.2267 c -1.3849,0.09913 -1.657,0.21787 -2.4281,1.0592 -1.03,1.1239 -1.4327,2.4071 -1.4347,4.5711 -0.002,2.6135 0.7477,4.256 2.2475,4.921 0.77951,0.34564 4.6402,0.12957 5.5368,-0.30989 z m -79.752,10.766 c 0,-0.3837 1.0957,-0.6921 2.4805,-0.69815 0.45475,-0.002 1.0947,-0.0754 1.4221,-0.16315 l 0.59531,-0.15953 v -18.446 l -2.1347,0.7871 c -2.4694,0.91049 -2.3632,0.89072 -2.3632,0.44007 0,-0.3781 6.0685,-3.9235 6.8164,-3.9824 0.42834,-0.03372 0.46432,0.68636 0.52873,10.583 l 0.06912,10.619 0.59234,0.15876 c 0.32579,0.0873 0.96441,0.16039 1.4192,0.16237 1.3848,0.006 2.4805,0.31445 2.4805,0.69815 0,0.2979 -1.0784,0.3638 -5.9531,0.3638 -4.8747,0 -5.9531,-0.0659 -5.9531,-0.3638 z m 24.871,-2.1497 v -2.5135 h -10.054 l 0.0055,-1.1245 c 0.0051,-1.0356 0.43436,-1.7259 5.4293,-8.7313 5.3259,-7.4695 5.4404,-7.6068 6.3445,-7.6068 h 0.92069 v 15.055 l 1.5214,0.0794 1.5214,0.0793 0.16272,2.249 h -3.2054 v 5.0271 h -2.6458 z m 0,-10.583 c 0,-3.1287 -0.05186,-5.6885 -0.11525,-5.6885 -0.10235,0 -7.4299,10.218 -7.9217,11.046 -0.15364,0.25882 0.69869,0.33073 3.9203,0.33073 h 4.1167 z m 18.316,8.0012 -0.57689,-0.61407 5.8089,-5.7908 -2.829,-2.8378 c -2.8122,-2.821 -2.8261,-2.8411 -2.3305,-3.3888 l 0.49858,-0.55092 5.7191,5.7013 5.818,-5.8 1.1816,1.1816 -5.8,5.818 2.8294,2.8443 c 2.8001,2.8148 2.8247,2.8505 2.3741,3.4415 l -0.45526,0.59723 -5.807,-5.8251 -5.8542,5.8376 z m 52.328,-2.8419 v -0.79375 h 15.61 v 1.5875 h -15.61 z m 0,-6.8792 V 6.98782 h 15.61 v 1.5875 h -15.61 z"
     fill="#333333"
     stroke-width="0.26458"
     id="path809" />
</svg>
